<?xml version="1.0" standalone="no"?>
<!DOCTYPE svg PUBLIC "-//W3C//DTD SVG 20010904//EN"
 "http://www.w3.org/TR/2001/REC-SVG-20010904/DTD/svg10.dtd">
<svg version="1.0" xmlns="http://www.w3.org/2000/svg"
 width="60.000000pt" height="60.000000pt" viewBox="0 0 60.000000 60.000000"
 preserveAspectRatio="xMidYMid meet">

<g transform="translate(0.000000,60.000000) scale(0.100000,-0.100000)"
fill="#000000" stroke="none">
<path d="M190 549 c-216 -98 -214 -403 4 -499 98 -44 224 -19 299 58 132 136
93 357 -78 438 -65 31 -160 32 -225 3z m-25 -109 c-60 -61 -113 -110 -116
-110 -4 0 -3 17 3 38 20 79 100 160 178 180 19 5 37 7 39 5 3 -2 -44 -53 -104
-113z m290 66 c18 -14 43 -40 55 -57 24 -32 54 -119 42 -119 -9 0 -222 213
-222 222 0 13 91 -20 125 -46z m-165 -6 c0 -39 -1 -40 -35 -40 -19 0 -35 3
-35 7 0 7 61 73 67 73 2 0 3 -18 3 -40z m90 -32 c0 -4 -16 -8 -35 -8 -34 0
-35 1 -35 42 l0 42 35 -34 c19 -19 35 -38 35 -42z m20 -58 l0 -40 -100 0 -100
0 0 40 0 40 100 0 100 0 0 -40z m-220 -161 l0 -180 -31 22 c-46 32 -85 93 -99
150 l-12 51 68 69 c38 38 70 69 71 69 2 0 3 -81 3 -181z m320 100 c0 -4 -18
-22 -40 -39 l-40 -32 0 78 0 78 40 -39 c22 -21 40 -42 40 -46z m-100 -39 l0
-40 -100 0 -100 0 0 40 0 40 100 0 100 0 0 -40z m145 0 c15 -17 16 -25 5 -70
-13 -52 -58 -122 -96 -147 -19 -12 -26 -10 -73 28 -28 23 -51 45 -49 48 6 15
173 160 184 161 6 0 19 -9 29 -20z m-161 -68 c-5 -4 -23 -20 -41 -36 l-32 -28
-45 33 c-25 18 -46 34 -46 36 0 2 39 3 87 3 48 0 83 -3 77 -8z m-116 -56 l22
-20 -37 -38 c-20 -21 -41 -38 -45 -38 -4 0 -8 34 -8 77 l0 76 23 -19 c12 -10
32 -27 45 -38z m95 -72 c26 -20 47 -40 47 -44 0 -26 -179 -36 -195 -10 -5 8
82 90 96 90 3 0 27 -16 52 -36z"/>
</g>
</svg>
