<?xml version="1.0" encoding="UTF-8" standalone="no"?>
<svg
   id="visual"
   viewBox="0 0 531.15985 766.44208"
   width="531.15985"
   height="766.44208"
   version="1.1"
   sodipodi:docname="bg1.svg"
   inkscape:version="1.3 (0e150ed6c4, 2023-07-21)"
   xmlns:inkscape="http://www.inkscape.org/namespaces/inkscape"
   xmlns:sodipodi="http://sodipodi.sourceforge.net/DTD/sodipodi-0.dtd"
   xmlns="http://www.w3.org/2000/svg"
   xmlns:svg="http://www.w3.org/2000/svg">
  <defs
     id="defs1" />
  <sodipodi:namedview
     id="namedview1"
     pagecolor="#ffffff"
     bordercolor="#000000"
     borderopacity="0.25"
     inkscape:showpageshadow="2"
     inkscape:pageopacity="0.0"
     inkscape:pagecheckerboard="0"
     inkscape:deskcolor="#d1d1d1"
     showgrid="false"
     inkscape:zoom="0.48828697"
     inkscape:cx="-200.70165"
     inkscape:cy="1.023988"
     inkscape:window-width="1920"
     inkscape:window-height="1057"
     inkscape:window-x="-8"
     inkscape:window-y="-8"
     inkscape:window-maximized="1"
     inkscape:current-layer="visual" />
  <g
     transform="matrix(0.51321679,0,0,0.56725619,155.2143,328.35633)"
     id="g1">
    <path
       d="m 439.5,-494.2 c 130.4,80 236.9,218.1 275.9,377.2 38.9,159.1 10.3,339.3 -73.2,491.4 -83.5,152 -221.9,276 -387.4,344.2 C 89.4,786.8 -103.1,799.4 -203.1,701 -303.2,602.6 -311,393.3 -297.2,251.7 c 13.8,-141.5 49.1,-215.4 50.4,-307.8 1.3,-92.5 -31.5,-203.6 3.9,-300.3 35.5,-96.8 139.2,-179.2 268.3,-209.4 129.1,-30.3 283.6,-8.4 414.1,71.6"
       fill="#ff9f0d"
       id="path1" />
  </g>
</svg>
